G04*
G04 #@! TF.GenerationSoftware,Altium Limited,Altium Designer,21.3.2 (30)*
G04*
G04 Layer_Physical_Order=2*
G04 Layer_Color=16711680*
%FSTAX24Y24*%
%MOIN*%
G70*
G04*
G04 #@! TF.SameCoordinates,E1B680ED-D902-4D1E-8AC8-1ED81694537C*
G04*
G04*
G04 #@! TF.FilePolarity,Positive*
G04*
G01*
G75*
%ADD13C,0.0250*%
%ADD22R,0.0598X0.0598*%
%ADD23C,0.0598*%
%ADD24C,0.0600*%
%ADD25R,0.0600X0.0600*%
%ADD26O,0.0472X0.0866*%
%ADD27R,0.0630X0.0630*%
%ADD28C,0.0630*%
%ADD29C,0.0200*%
G36*
X0426Y01545D02*
X04245Y0153D01*
X028485D01*
X02845Y015335D01*
X0286Y035D01*
X0287Y0351D01*
X0426D01*
Y01545D01*
D02*
G37*
%LPC*%
G36*
X03245Y032953D02*
X03245Y032953D01*
X03D01*
X029896Y03294D01*
X029798Y032899D01*
X029715Y032835D01*
X029715Y032835D01*
X029165Y032285D01*
X029101Y032202D01*
X02906Y032104D01*
X029047Y032D01*
X029047Y032D01*
Y03D01*
X029047Y03D01*
X02906Y029896D01*
X029101Y029798D01*
X029165Y029715D01*
X029351Y029529D01*
Y029441D01*
X029374Y029325D01*
X029397Y029268D01*
X029165Y029035D01*
X029101Y028952D01*
X02906Y028854D01*
X029047Y02875D01*
X029047Y02875D01*
Y028D01*
X029047Y028D01*
X02906Y027896D01*
X029101Y027798D01*
X029165Y027715D01*
X029351Y027529D01*
Y026901D01*
X030047D01*
Y024667D01*
X030029Y024649D01*
X029401D01*
Y024021D01*
X028916Y023536D01*
X028851Y023453D01*
X028811Y023355D01*
X028797Y023251D01*
X028797Y023251D01*
Y019849D01*
X028797Y019849D01*
X028811Y019745D01*
X028851Y019647D01*
X028916Y019564D01*
X029401Y019079D01*
Y018991D01*
X029424Y018875D01*
X029469Y018766D01*
X029535Y018668D01*
X029597Y018606D01*
Y018494D01*
X029535Y018432D01*
X029469Y018334D01*
X029424Y018225D01*
X029401Y018109D01*
Y017991D01*
X029424Y017875D01*
X029469Y017766D01*
X029535Y017668D01*
X029618Y017585D01*
X029716Y017519D01*
X029825Y017474D01*
X029941Y017451D01*
X030059D01*
X030175Y017474D01*
X030284Y017519D01*
X030382Y017585D01*
X030465Y017668D01*
X030531Y017766D01*
X030576Y017875D01*
X030599Y017991D01*
Y018109D01*
X030576Y018225D01*
X030531Y018334D01*
X030465Y018432D01*
X030403Y018494D01*
Y018606D01*
X030444Y018647D01*
X031265D01*
X031284Y018618D01*
X031368Y018534D01*
X031381Y018525D01*
Y018475D01*
X031368Y018466D01*
X031284Y018382D01*
X031218Y018284D01*
X031173Y018175D01*
X03115Y018059D01*
Y017941D01*
X031173Y017825D01*
X031218Y017716D01*
X031284Y017618D01*
X031368Y017534D01*
X031466Y017468D01*
X031575Y017423D01*
X031691Y0174D01*
X031809D01*
X031925Y017423D01*
X032034Y017468D01*
X032132Y017534D01*
X03217Y017571D01*
X036512D01*
X037555Y016529D01*
X037644Y016461D01*
X037747Y016418D01*
X037858Y016403D01*
X041754D01*
X041865Y016418D01*
X041968Y016461D01*
X042057Y016529D01*
X042203Y016675D01*
X042271Y016764D01*
X042314Y016867D01*
X042329Y016978D01*
Y019804D01*
X042314Y019914D01*
X042271Y020018D01*
X042203Y020107D01*
X041988Y020322D01*
X041899Y02039D01*
X041796Y020433D01*
X041685Y020447D01*
X041587D01*
X041554Y020485D01*
X041555Y020491D01*
Y020684D01*
X041605Y020735D01*
X041605Y020735D01*
X041669Y020818D01*
X04171Y020916D01*
X041723Y02102D01*
X041723Y02102D01*
Y02275D01*
X04171Y022854D01*
X041669Y022952D01*
X041605Y023035D01*
X040855Y023785D01*
X040772Y023849D01*
X040674Y02389D01*
X04057Y023903D01*
X04057Y023903D01*
X038381D01*
X03835Y023941D01*
Y024029D01*
X038535Y024215D01*
X038535Y024215D01*
X038599Y024298D01*
X03864Y024396D01*
X038653Y0245D01*
X038653Y0245D01*
Y02625D01*
X03864Y026354D01*
X038599Y026452D01*
X038535Y026535D01*
X038535Y026535D01*
X038303Y026767D01*
X038327Y026825D01*
X03835Y026941D01*
Y027059D01*
X038327Y027175D01*
X038282Y027284D01*
X038216Y027382D01*
X038132Y027466D01*
X038119Y027475D01*
Y027525D01*
X038132Y027534D01*
X038216Y027618D01*
X038282Y027716D01*
X038327Y027825D01*
X03835Y027941D01*
Y028059D01*
X038327Y028175D01*
X038282Y028284D01*
X038216Y028382D01*
X038132Y028466D01*
X038119Y028475D01*
Y028525D01*
X038132Y028534D01*
X038216Y028618D01*
X038282Y028716D01*
X038327Y028825D01*
X03835Y028941D01*
Y029059D01*
X038327Y029175D01*
X038282Y029284D01*
X038216Y029382D01*
X038132Y029466D01*
X038119Y029475D01*
Y029525D01*
X038132Y029534D01*
X038216Y029618D01*
X038282Y029716D01*
X038327Y029825D01*
X03835Y029941D01*
Y030059D01*
X038327Y030175D01*
X038282Y030284D01*
X038216Y030382D01*
X038132Y030466D01*
X038119Y030475D01*
Y030525D01*
X038132Y030534D01*
X038216Y030618D01*
X038282Y030716D01*
X038327Y030825D01*
X03835Y030941D01*
Y031059D01*
X038327Y031175D01*
X038282Y031284D01*
X038216Y031382D01*
X038132Y031466D01*
X038119Y031475D01*
Y031525D01*
X038132Y031534D01*
X038216Y031618D01*
X038282Y031716D01*
X038327Y031825D01*
X03835Y031941D01*
Y032059D01*
X038327Y032175D01*
X038282Y032284D01*
X038216Y032382D01*
X038132Y032466D01*
X038034Y032532D01*
X037925Y032577D01*
X037809Y0326D01*
X037691D01*
X037575Y032577D01*
X037466Y032532D01*
X037368Y032466D01*
X037284Y032382D01*
X037218Y032284D01*
X037173Y032175D01*
X03715Y032059D01*
Y031941D01*
X037173Y031825D01*
X037218Y031716D01*
X037284Y031618D01*
X037368Y031534D01*
X037381Y031525D01*
Y031475D01*
X037368Y031466D01*
X037284Y031382D01*
X037218Y031284D01*
X037173Y031175D01*
X03715Y031059D01*
Y030941D01*
X037173Y030825D01*
X037218Y030716D01*
X037284Y030618D01*
X037368Y030534D01*
X037381Y030525D01*
Y030475D01*
X037368Y030466D01*
X037284Y030382D01*
X037218Y030284D01*
X037173Y030175D01*
X03715Y030059D01*
Y029941D01*
X037173Y029825D01*
X037218Y029716D01*
X037284Y029618D01*
X037368Y029534D01*
X037381Y029525D01*
Y029475D01*
X037368Y029466D01*
X037284Y029382D01*
X037218Y029284D01*
X037173Y029175D01*
X03715Y029059D01*
Y028941D01*
X037173Y028825D01*
X037218Y028716D01*
X037284Y028618D01*
X037368Y028534D01*
X037381Y028525D01*
Y028475D01*
X037368Y028466D01*
X037284Y028382D01*
X037267Y028358D01*
X037218Y028353D01*
X032735Y032835D01*
X032652Y032899D01*
X032554Y03294D01*
X03245Y032953D01*
D02*
G37*
%LPD*%
G36*
X03116Y032108D02*
X03115Y032059D01*
Y031941D01*
X031119Y031903D01*
X03095D01*
X03095Y031903D01*
X030846Y03189D01*
X030748Y031849D01*
X030665Y031785D01*
X030665Y031785D01*
X030572Y031693D01*
X030514Y031705D01*
X030481Y031784D01*
X030415Y031882D01*
X030332Y031965D01*
X030234Y032031D01*
X030162Y032061D01*
X030151Y03211D01*
X030182Y032147D01*
X031128D01*
X03116Y032108D01*
D02*
G37*
G36*
X031149Y03106D02*
X03115Y031059D01*
Y030971D01*
X030965Y030785D01*
X030901Y030702D01*
X03086Y030604D01*
X030847Y0305D01*
X030847Y0305D01*
Y030167D01*
X030502Y029822D01*
X030452Y029827D01*
X030415Y029882D01*
X030332Y029965D01*
X030318Y029975D01*
Y030025D01*
X030332Y030035D01*
X030415Y030118D01*
X030481Y030216D01*
X030526Y030325D01*
X030549Y030441D01*
Y030529D01*
X031104Y031083D01*
X031149Y03106D01*
D02*
G37*
G36*
X036667Y027763D02*
Y02675D01*
X036667Y02675D01*
X03667Y026721D01*
X036623Y026698D01*
X035953Y027367D01*
Y028411D01*
X036Y02843D01*
X036667Y027763D01*
D02*
G37*
G36*
X035147Y028633D02*
Y0272D01*
X035147Y0272D01*
X03516Y027096D01*
X035201Y026998D01*
X035265Y026915D01*
X03715Y025029D01*
Y024941D01*
X037173Y024825D01*
X037218Y024716D01*
X037284Y024618D01*
X037368Y024534D01*
X037381Y024525D01*
Y024475D01*
X037368Y024466D01*
X037284Y024382D01*
X037218Y024284D01*
X037173Y024175D01*
X03715Y024059D01*
Y023941D01*
X037119Y023903D01*
X032381D01*
X03235Y023941D01*
Y024059D01*
X032327Y024175D01*
X032282Y024284D01*
X032216Y024382D01*
X032132Y024466D01*
X032119Y024475D01*
Y024525D01*
X032132Y024534D01*
X032216Y024618D01*
X032282Y024716D01*
X032327Y024825D01*
X03235Y024941D01*
Y025059D01*
X032327Y025175D01*
X032282Y025284D01*
X032216Y025382D01*
X032132Y025466D01*
X032119Y025475D01*
Y025525D01*
X032132Y025534D01*
X032216Y025618D01*
X032282Y025716D01*
X032327Y025825D01*
X03235Y025941D01*
Y026059D01*
X032327Y026175D01*
X032282Y026284D01*
X032216Y026382D01*
X032132Y026466D01*
X032119Y026475D01*
Y026525D01*
X032132Y026534D01*
X032216Y026618D01*
X032282Y026716D01*
X032327Y026825D01*
X03235Y026941D01*
Y027059D01*
X032327Y027175D01*
X032282Y027284D01*
X032216Y027382D01*
X032132Y027466D01*
X032119Y027475D01*
Y027525D01*
X032132Y027534D01*
X032216Y027618D01*
X032282Y027716D01*
X032327Y027825D01*
X03235Y027941D01*
Y028059D01*
X032327Y028175D01*
X032282Y028284D01*
X032216Y028382D01*
X032132Y028466D01*
X032119Y028475D01*
Y028525D01*
X032132Y028534D01*
X032216Y028618D01*
X032282Y028716D01*
X032327Y028825D01*
X03235Y028941D01*
Y029059D01*
X032327Y029175D01*
X032282Y029284D01*
X032216Y029382D01*
X032132Y029466D01*
X032119Y029475D01*
Y029525D01*
X032132Y029534D01*
X032216Y029618D01*
X032282Y029716D01*
X032327Y029825D01*
X03235Y029941D01*
Y030059D01*
X032327Y030175D01*
X032282Y030284D01*
X032216Y030382D01*
X032132Y030466D01*
X032119Y030475D01*
Y030525D01*
X032132Y030534D01*
X032216Y030618D01*
X032282Y030716D01*
X032327Y030825D01*
X03235Y030941D01*
Y031059D01*
X032381Y031097D01*
X032683D01*
X035147Y028633D01*
D02*
G37*
G36*
X031339Y029507D02*
X031343Y029502D01*
X03135Y029448D01*
X031284Y029382D01*
X031218Y029284D01*
X031173Y029175D01*
X03115Y029059D01*
Y028941D01*
X031173Y028825D01*
X031218Y028716D01*
X031284Y028618D01*
X031368Y028534D01*
X031381Y028525D01*
Y028475D01*
X031368Y028466D01*
X031284Y028382D01*
X031218Y028284D01*
X031173Y028175D01*
X03115Y028059D01*
Y027941D01*
X031173Y027825D01*
X031218Y027716D01*
X031284Y027618D01*
X031368Y027534D01*
X031381Y027525D01*
Y027475D01*
X031368Y027466D01*
X031284Y027382D01*
X031218Y027284D01*
X031173Y027175D01*
X03115Y027059D01*
Y026941D01*
X031173Y026825D01*
X031218Y026716D01*
X031284Y026618D01*
X031368Y026534D01*
X031381Y026525D01*
Y026475D01*
X031368Y026466D01*
X031284Y026382D01*
X031218Y026284D01*
X031173Y026175D01*
X03115Y026059D01*
Y025941D01*
X031173Y025825D01*
X031218Y025716D01*
X031284Y025618D01*
X031368Y025534D01*
X031381Y025525D01*
Y025475D01*
X031368Y025466D01*
X031284Y025382D01*
X031218Y025284D01*
X031173Y025175D01*
X03115Y025059D01*
Y024941D01*
X031173Y024825D01*
X031218Y024716D01*
X031284Y024618D01*
X031368Y024534D01*
X031381Y024525D01*
Y024475D01*
X031368Y024466D01*
X031284Y024382D01*
X031218Y024284D01*
X031173Y024175D01*
X03115Y024059D01*
Y023941D01*
X031119Y023903D01*
X030599D01*
Y024079D01*
X030735Y024215D01*
X030799Y024298D01*
X03084Y024396D01*
X030853Y0245D01*
Y028D01*
X030853Y028D01*
X03084Y028104D01*
X030799Y028202D01*
X030735Y028285D01*
X030735Y028285D01*
X030549Y028471D01*
Y028559D01*
X030526Y028675D01*
X030516Y0287D01*
X030535Y028715D01*
X031331Y02951D01*
X031339Y029507D01*
D02*
G37*
G36*
X03715Y023059D02*
Y022971D01*
X037083Y022903D01*
X032381D01*
X03235Y022941D01*
Y023059D01*
X032381Y023097D01*
X037119D01*
X03715Y023059D01*
D02*
G37*
G36*
X040638Y022861D02*
X040619Y022815D01*
X040185D01*
Y022735D01*
X040141Y022712D01*
X040091Y022745D01*
X039979Y022791D01*
X039861Y022815D01*
X039739D01*
X039621Y022791D01*
X039509Y022745D01*
X039408Y022678D01*
X039334Y022603D01*
X03895D01*
X038846Y02259D01*
X038748Y022549D01*
X038665Y022485D01*
X038665Y022485D01*
X038373Y022194D01*
X038314Y022206D01*
X038282Y022284D01*
X038216Y022382D01*
X038132Y022466D01*
X038119Y022475D01*
Y022525D01*
X038132Y022534D01*
X038216Y022618D01*
X038282Y022716D01*
X038327Y022825D01*
X03835Y022941D01*
Y023059D01*
X038381Y023097D01*
X040403D01*
X040638Y022861D01*
D02*
G37*
G36*
X03715Y022059D02*
Y021971D01*
X037083Y021903D01*
X032381D01*
X03235Y021941D01*
Y022059D01*
X032381Y022097D01*
X037119D01*
X03715Y022059D01*
D02*
G37*
G36*
X039408Y021722D02*
X039509Y021655D01*
X039621Y021609D01*
X039739Y021585D01*
X039861D01*
X039979Y021609D01*
X040091Y021655D01*
X040141Y021688D01*
X040185Y021665D01*
Y021585D01*
X040371D01*
Y020912D01*
X040205Y020746D01*
X040141Y020738D01*
X04001Y020684D01*
X039946Y020634D01*
X039882Y020684D01*
X039751Y020738D01*
X039611Y020756D01*
X039471Y020738D01*
X039341Y020684D01*
X039229Y020598D01*
X039143Y020486D01*
X039089Y020355D01*
X039071Y020215D01*
Y019822D01*
X039089Y019682D01*
X039143Y019551D01*
X039229Y019439D01*
X039341Y019353D01*
X039471Y019299D01*
X039611Y019281D01*
X039751Y019299D01*
X03981Y019324D01*
X039852Y019296D01*
Y018916D01*
X039867Y018805D01*
X039881Y01877D01*
X039843Y018731D01*
X039751Y018769D01*
X039611Y018788D01*
X039471Y018769D01*
X039341Y018715D01*
X039229Y018629D01*
X039143Y018517D01*
X039089Y018387D01*
X039071Y018247D01*
Y017853D01*
X039089Y017713D01*
X039143Y017583D01*
X039229Y017471D01*
X039341Y017385D01*
X039471Y017331D01*
X039611Y017312D01*
X039751Y017331D01*
X039783Y017344D01*
X039825Y017316D01*
Y01726D01*
X038036D01*
X037942Y017354D01*
X037962Y0174D01*
X03835D01*
Y0186D01*
X038264D01*
X038238Y01865D01*
X038282Y018716D01*
X038327Y018825D01*
X03835Y018941D01*
Y019059D01*
X038327Y019175D01*
X038282Y019284D01*
X038216Y019382D01*
X038132Y019466D01*
X038119Y019475D01*
Y019525D01*
X038132Y019534D01*
X038216Y019618D01*
X038282Y019716D01*
X038327Y019825D01*
X03835Y019941D01*
Y020059D01*
X038327Y020175D01*
X038282Y020284D01*
X038216Y020382D01*
X038132Y020466D01*
X038119Y020475D01*
Y020525D01*
X038132Y020534D01*
X038216Y020618D01*
X038282Y020716D01*
X038327Y020825D01*
X03835Y020941D01*
Y021029D01*
X039117Y021797D01*
X039334D01*
X039408Y021722D01*
D02*
G37*
G36*
X03323Y02105D02*
X032373Y020194D01*
X032314Y020206D01*
X032282Y020284D01*
X032216Y020382D01*
X032132Y020466D01*
X032119Y020475D01*
Y020525D01*
X032132Y020534D01*
X032216Y020618D01*
X032282Y020716D01*
X032327Y020825D01*
X03235Y020941D01*
Y021059D01*
X032381Y021097D01*
X033211D01*
X03323Y02105D01*
D02*
G37*
G36*
X03115Y021059D02*
Y020941D01*
X031173Y020825D01*
X031218Y020716D01*
X031284Y020618D01*
X031368Y020534D01*
X031381Y020525D01*
Y020475D01*
X031368Y020466D01*
X031284Y020382D01*
X031218Y020284D01*
X031173Y020175D01*
X03115Y020059D01*
Y019941D01*
X031173Y019825D01*
X031218Y019716D01*
X031284Y019618D01*
X031365Y019536D01*
X031368Y019524D01*
X031368Y01948D01*
X03134Y019453D01*
X030444D01*
X030382Y019515D01*
X030368Y019525D01*
Y019575D01*
X030382Y019585D01*
X030465Y019668D01*
X030531Y019766D01*
X030576Y019875D01*
X030599Y019991D01*
Y020109D01*
X030576Y020225D01*
X030531Y020334D01*
X030465Y020432D01*
X030382Y020515D01*
X030368Y020525D01*
Y020575D01*
X030382Y020585D01*
X030465Y020668D01*
X030531Y020766D01*
X030576Y020875D01*
X030599Y020991D01*
Y021079D01*
X030617Y021097D01*
X031119D01*
X03115Y021059D01*
D02*
G37*
G36*
X041471Y019548D02*
Y018518D01*
X041422Y018508D01*
X041418Y018517D01*
X041332Y018629D01*
X04122Y018715D01*
X04109Y018769D01*
X041025Y018778D01*
X040709Y019094D01*
Y019296D01*
X040751Y019324D01*
X04081Y019299D01*
X04095Y019281D01*
X04109Y019299D01*
X04122Y019353D01*
X041332Y019439D01*
X041418Y019551D01*
X041421Y019558D01*
X041471Y019548D01*
D02*
G37*
G36*
X037368Y020534D02*
X037381Y020525D01*
Y020475D01*
X037368Y020466D01*
X037284Y020382D01*
X037218Y020284D01*
X037173Y020175D01*
X03715Y020059D01*
Y019941D01*
X037173Y019825D01*
X037218Y019716D01*
X037284Y019618D01*
X037368Y019534D01*
X037381Y019525D01*
Y019475D01*
X037368Y019466D01*
X037284Y019382D01*
X037218Y019284D01*
X037173Y019175D01*
X03715Y019059D01*
Y018941D01*
X037173Y018825D01*
X037218Y018716D01*
X037262Y01865D01*
X037236Y0186D01*
X03715D01*
Y018212D01*
X037104Y018192D01*
X036993Y018303D01*
X036904Y018371D01*
X036801Y018414D01*
X03669Y018429D01*
X03217D01*
X032132Y018466D01*
X032119Y018475D01*
Y018525D01*
X032132Y018534D01*
X032216Y018618D01*
X032282Y018716D01*
X032327Y018825D01*
X03235Y018941D01*
Y019029D01*
X033917Y020597D01*
X037305D01*
X037368Y020534D01*
D02*
G37*
D13*
X040281Y018916D02*
X04095Y018247D01*
X040281Y018916D02*
Y020018D01*
X04095Y01805D02*
Y018247D01*
X040281Y020018D02*
Y020215D01*
X0408Y020735D01*
Y0222D01*
X0419Y016978D02*
Y019804D01*
X04095Y020018D02*
X041685D01*
X0419Y019804D01*
X040253Y016832D02*
X041754D01*
X0419Y016978D01*
X040253Y018023D02*
X040281Y01805D01*
X040253Y016832D02*
Y018023D01*
X037858Y016832D02*
X040253D01*
X03669Y018D02*
X037858Y016832D01*
X03175Y018D02*
X03669D01*
D22*
X02995Y0275D02*
D03*
X03Y02405D02*
D03*
D23*
X02995Y0285D02*
D03*
Y0295D02*
D03*
Y0305D02*
D03*
Y0315D02*
D03*
X03Y01805D02*
D03*
Y01905D02*
D03*
Y02005D02*
D03*
Y02105D02*
D03*
Y02305D02*
D03*
Y02205D02*
D03*
D24*
X03175Y032D02*
D03*
Y031D02*
D03*
Y029D02*
D03*
Y028D02*
D03*
Y03D02*
D03*
Y027D02*
D03*
Y026D02*
D03*
Y025D02*
D03*
Y024D02*
D03*
Y023D02*
D03*
Y022D02*
D03*
Y021D02*
D03*
Y02D02*
D03*
Y019D02*
D03*
X03775Y032D02*
D03*
Y031D02*
D03*
X03175Y018D02*
D03*
X03775Y019D02*
D03*
Y02D02*
D03*
Y021D02*
D03*
Y022D02*
D03*
Y023D02*
D03*
Y024D02*
D03*
Y025D02*
D03*
Y026D02*
D03*
Y027D02*
D03*
Y028D02*
D03*
Y029D02*
D03*
Y03D02*
D03*
D25*
Y018D02*
D03*
D26*
X04095Y020018D02*
D03*
X040281D02*
D03*
X039611D02*
D03*
Y01805D02*
D03*
X040281D02*
D03*
X04095D02*
D03*
D27*
X0408Y0222D02*
D03*
D28*
X0398D02*
D03*
D29*
X03375Y021D02*
X03775D01*
X03175Y019D02*
X03375Y021D01*
X041152Y020491D02*
Y020852D01*
X04132Y02102D01*
X04095Y020018D02*
Y020289D01*
X041152Y020491D01*
X04132Y02102D02*
Y02275D01*
X03Y02305D02*
X03045Y0235D01*
X04057D01*
X04132Y02275D01*
X031201Y022549D02*
X03125Y0225D01*
X03725D01*
X029501Y020549D02*
X03Y02005D01*
X029501Y022549D02*
X031201D01*
X029501Y020549D02*
Y022549D01*
X029201Y023251D02*
X03Y02405D01*
X029201Y019849D02*
Y023251D01*
X03Y02105D02*
X03045Y0215D01*
X029201Y019849D02*
X03Y01905D01*
X03045Y0215D02*
X03725D01*
X03Y02405D02*
X03045Y0245D01*
X03Y01805D02*
Y01905D01*
X0317D01*
X03175Y019D01*
X02995Y0305D02*
X03095Y0315D01*
X03285D01*
X03555Y0288D01*
Y0272D02*
Y0288D01*
Y0272D02*
X03775Y025D01*
X02945Y03D02*
X02995Y0295D01*
X02945Y03D02*
Y032D01*
X03Y03255D01*
X03245D01*
X03707Y02793D01*
Y02675D02*
Y02793D01*
Y02675D02*
X03732Y0265D01*
X038D01*
X03825Y02625D01*
Y0245D02*
Y02625D01*
X03775Y024D02*
X03825Y0245D01*
X03725Y0225D02*
X03775Y023D01*
Y021D02*
X03895Y0222D01*
X0398D01*
X03125Y0305D02*
X03175Y031D01*
X03125Y03D02*
Y0305D01*
X03025Y029D02*
X03125Y03D01*
X0297Y029D02*
X03025D01*
X02945Y02875D02*
X0297Y029D01*
X02945Y028D02*
Y02875D01*
Y028D02*
X02995Y0275D01*
X03725Y0215D02*
X03775Y022D01*
X02995Y0285D02*
X03045Y028D01*
Y0245D02*
Y028D01*
M02*
