M48
;Layer_Color=9474304
;FILE_FORMAT=2:4
INCH,LZ
;TYPE=PLATED
T1F00S00C0.0295
T2F00S00C0.0300
T3F00S00C0.0315
T4F00S00C0.0402
%
T01
X039611Y01805
X040281
X04095
Y020018
X040281
X039611
T02
X03175Y018
Y019
Y02
Y021
Y022
Y023
Y024
Y025
Y026
Y027
Y028
Y029
Y03
Y031
X03775
Y03
Y029
Y028
Y027
Y026
Y025
Y024
Y023
Y022
Y021
Y02
Y019
Y018
Y032
X03175
T03
X0398Y0222
X0408
T04
X03Y01805
Y01905
Y02005
Y02105
Y02205
Y02305
Y02405
X02995Y0275
Y0285
Y0295
Y0305
Y0315
M30
