G04*
G04 #@! TF.GenerationSoftware,Altium Limited,Altium Designer,21.3.2 (30)*
G04*
G04 Layer_Color=16711935*
%FSTAX24Y24*%
%MOIN*%
G70*
G04*
G04 #@! TF.SameCoordinates,E1B680ED-D902-4D1E-8AC8-1ED81694537C*
G04*
G04*
G04 #@! TF.FilePolarity,Negative*
G04*
G01*
G75*
%ADD15R,0.0678X0.0678*%
%ADD16C,0.0678*%
%ADD17C,0.0680*%
%ADD18R,0.0680X0.0680*%
%ADD19O,0.0552X0.0946*%
%ADD20R,0.0710X0.0710*%
%ADD21C,0.0710*%
D15*
X02995Y0275D02*
D03*
X03Y02405D02*
D03*
D16*
X02995Y0285D02*
D03*
Y0295D02*
D03*
Y0305D02*
D03*
Y0315D02*
D03*
X03Y01805D02*
D03*
Y01905D02*
D03*
Y02005D02*
D03*
Y02105D02*
D03*
Y02305D02*
D03*
Y02205D02*
D03*
D17*
X03175Y032D02*
D03*
Y031D02*
D03*
Y029D02*
D03*
Y028D02*
D03*
Y03D02*
D03*
Y027D02*
D03*
Y026D02*
D03*
Y025D02*
D03*
Y024D02*
D03*
Y023D02*
D03*
Y022D02*
D03*
Y021D02*
D03*
Y02D02*
D03*
Y019D02*
D03*
X03775Y032D02*
D03*
Y031D02*
D03*
X03175Y018D02*
D03*
X03775Y019D02*
D03*
Y02D02*
D03*
Y021D02*
D03*
Y022D02*
D03*
Y023D02*
D03*
Y024D02*
D03*
Y025D02*
D03*
Y026D02*
D03*
Y027D02*
D03*
Y028D02*
D03*
Y029D02*
D03*
Y03D02*
D03*
D18*
Y018D02*
D03*
D19*
X04095Y020018D02*
D03*
X040281D02*
D03*
X039611D02*
D03*
Y01805D02*
D03*
X040281D02*
D03*
X04095D02*
D03*
D20*
X0408Y0222D02*
D03*
D21*
X0398D02*
D03*
M02*
