G04*
G04 #@! TF.GenerationSoftware,Altium Limited,Altium Designer,21.3.2 (30)*
G04*
G04 Layer_Color=65535*
%FSTAX24Y24*%
%MOIN*%
G70*
G04*
G04 #@! TF.SameCoordinates,E1B680ED-D902-4D1E-8AC8-1ED81694537C*
G04*
G04*
G04 #@! TF.FilePolarity,Positive*
G04*
G01*
G75*
%ADD10C,0.0079*%
%ADD11C,0.0050*%
%ADD12C,0.0030*%
%ADD13C,0.0250*%
%ADD14C,0.0100*%
G36*
X04173Y019978D02*
X04171Y019999D01*
Y020469D01*
X04155Y020398D01*
X04133Y020248D01*
X04173Y019978D01*
D02*
G37*
D10*
X02945Y028D02*
X03045D01*
X02945Y032099D02*
X03045D01*
Y026902D02*
Y032099D01*
X02945Y026902D02*
Y032099D01*
Y026902D02*
X03045D01*
X0305Y017451D02*
Y024648D01*
X0295D02*
X0305D01*
X0295Y017451D02*
Y024648D01*
Y017451D02*
X0305D01*
X0295Y02355D02*
X0305D01*
D11*
X04132Y020259D02*
X041704Y01998D01*
X04132Y020259D02*
X041699Y02048D01*
D12*
X04171Y017508D02*
Y020549D01*
X0388D02*
X04171D01*
X0388Y017508D02*
Y020549D01*
Y017508D02*
X04171D01*
D13*
X041776Y020838D02*
Y02309D01*
X038824Y020838D02*
X041776D01*
X038824D02*
Y02309D01*
X041776D01*
D14*
X02875Y0276D02*
X02865Y0275D01*
Y0273D01*
X02875Y0272D01*
X02915D01*
X02925Y0273D01*
Y0275D01*
X02915Y0276D01*
X02895D01*
Y0274D01*
X02925Y0278D02*
X02865D01*
Y0281D01*
X02875Y0282D01*
X02895D01*
X02905Y0281D01*
Y0278D01*
X02875Y0288D02*
X02865Y0287D01*
Y0285D01*
X02875Y0284D01*
X02885D01*
X02895Y0285D01*
Y0287D01*
X02905Y0288D01*
X02915D01*
X02925Y0287D01*
Y0285D01*
X02915Y0284D01*
X0287Y0172D02*
X0293D01*
Y0176D01*
Y0179D02*
Y0181D01*
X0292Y0182D01*
X029D01*
X0289Y0181D01*
Y0179D01*
X029Y0178D01*
X0292D01*
X0293Y0179D01*
X0289Y0184D02*
X0293D01*
X0291D01*
X029Y0185D01*
X0289Y0186D01*
Y0187D01*
Y0191D02*
Y0193D01*
X029Y0194D01*
X0293D01*
Y0191D01*
X0292Y019D01*
X0291Y0191D01*
Y0194D01*
X03135Y03385D02*
Y03445D01*
X03175Y03385D01*
Y03445D01*
X03205Y03425D02*
X03225D01*
X03235Y03415D01*
Y03385D01*
X03205D01*
X03195Y03395D01*
X03205Y03405D01*
X03235D01*
X03255Y03385D02*
Y03425D01*
X03285D01*
X032949Y03415D01*
Y03385D01*
X033249D02*
X033449D01*
X033549Y03395D01*
Y03415D01*
X033449Y03425D01*
X033249D01*
X033149Y03415D01*
Y03395D01*
X033249Y03385D01*
X03928Y02136D02*
X03918Y02146D01*
X03898D01*
X03888Y02136D01*
Y02126D01*
X03898Y02116D01*
X03918D01*
X03928Y02106D01*
Y02096D01*
X03918Y02086D01*
X03898D01*
X03888Y02096D01*
X03948Y02146D02*
Y02086D01*
X03968Y02106D01*
X03988Y02086D01*
Y02146D01*
X04008Y02136D02*
X04018Y02146D01*
X04038D01*
X040479Y02136D01*
Y02126D01*
X04028Y02106D01*
Y02096D02*
Y02086D01*
X0392Y02411D02*
X0388D01*
Y02381D01*
X039Y02391D01*
X0391D01*
X0392Y02381D01*
Y02361D01*
X0391Y02351D01*
X0389D01*
X0388Y02361D01*
X0394Y02411D02*
Y02371D01*
X0396Y02351D01*
X0398Y02371D01*
Y02411D01*
M02*
