G04*
G04 #@! TF.GenerationSoftware,Altium Limited,Altium Designer,21.3.2 (30)*
G04*
G04 Layer_Color=2752767*
%FSTAX24Y24*%
%MOIN*%
G70*
G04*
G04 #@! TF.SameCoordinates,6B988B76-0ACF-4F39-8010-38100BFBF103*
G04*
G04*
G04 #@! TF.FilePolarity,Positive*
G04*
G01*
G75*
%ADD34C,0.0020*%
%ADD35C,0.0027*%
D34*
X051001Y02172D02*
Y02188D01*
X051161D01*
Y02172D01*
X051001D01*
X05167D02*
Y02188D01*
X05183D01*
Y02172D01*
X05167D01*
X052339D02*
Y02188D01*
X052499D01*
Y02172D01*
X052339D01*
Y023688D02*
Y023849D01*
X052499D01*
Y023688D01*
X052339D01*
X05167D02*
Y023849D01*
X05183D01*
Y023688D01*
X05167D01*
X051001D02*
Y023849D01*
X051161D01*
Y023688D01*
X051001D01*
X053959Y03612D02*
X053879Y03628D01*
X054039D01*
X053959Y03612D01*
X055518D02*
X055438Y03628D01*
X055598D01*
X055518Y03612D01*
X0524D02*
X05232Y03628D01*
X05248D01*
X0524Y03612D01*
X050841D02*
X050761Y03628D01*
X050921D01*
X050841Y03612D01*
X03645Y01892D02*
X03649Y01896D01*
X03653D01*
X03649Y019D01*
X03653Y01904D01*
X03649D01*
X03645Y01908D01*
X03641Y01904D01*
X03637D01*
X03641Y019D01*
X03637Y01896D01*
X03641D01*
X03645Y01892D01*
Y01992D02*
X03649Y01996D01*
X03653D01*
X03649Y02D01*
X03653Y02004D01*
X03649D01*
X03645Y02008D01*
X03641Y02004D01*
X03637D01*
X03641Y02D01*
X03637Y01996D01*
X03641D01*
X03645Y01992D01*
Y02092D02*
X03649Y02096D01*
X03653D01*
X03649Y021D01*
X03653Y02104D01*
X03649D01*
X03645Y02108D01*
X03641Y02104D01*
X03637D01*
X03641Y021D01*
X03637Y02096D01*
X03641D01*
X03645Y02092D01*
Y02192D02*
X03649Y02196D01*
X03653D01*
X03649Y022D01*
X03653Y02204D01*
X03649D01*
X03645Y02208D01*
X03641Y02204D01*
X03637D01*
X03641Y022D01*
X03637Y02196D01*
X03641D01*
X03645Y02192D01*
Y02392D02*
X03649Y02396D01*
X03653D01*
X03649Y024D01*
X03653Y02404D01*
X03649D01*
X03645Y02408D01*
X03641Y02404D01*
X03637D01*
X03641Y024D01*
X03637Y02396D01*
X03641D01*
X03645Y02392D01*
Y02492D02*
X03649Y02496D01*
X03653D01*
X03649Y025D01*
X03653Y02504D01*
X03649D01*
X03645Y02508D01*
X03641Y02504D01*
X03637D01*
X03641Y025D01*
X03637Y02496D01*
X03641D01*
X03645Y02492D01*
Y02292D02*
X03649Y02296D01*
X03653D01*
X03649Y023D01*
X03653Y02304D01*
X03649D01*
X03645Y02308D01*
X03641Y02304D01*
X03637D01*
X03641Y023D01*
X03637Y02296D01*
X03641D01*
X03645Y02292D01*
X03897Y03689D02*
X03901Y03697D01*
X03897Y03705D01*
X03905Y03701D01*
X03913Y03705D01*
X03909Y03697D01*
X03913Y03689D01*
X03905Y03693D01*
X03897Y03689D01*
Y03589D02*
X03901Y03597D01*
X03897Y03605D01*
X03905Y03601D01*
X03913Y03605D01*
X03909Y03597D01*
X03913Y03589D01*
X03905Y03593D01*
X03897Y03589D01*
Y03489D02*
X03901Y03497D01*
X03897Y03505D01*
X03905Y03501D01*
X03913Y03505D01*
X03909Y03497D01*
X03913Y03489D01*
X03905Y03493D01*
X03897Y03489D01*
Y03389D02*
X03901Y03397D01*
X03897Y03405D01*
X03905Y03401D01*
X03913Y03405D01*
X03909Y03397D01*
X03913Y03389D01*
X03905Y03393D01*
X03897Y03389D01*
Y03289D02*
X03901Y03297D01*
X03897Y03305D01*
X03905Y03301D01*
X03913Y03305D01*
X03909Y03297D01*
X03913Y03289D01*
X03905Y03293D01*
X03897Y03289D01*
Y03189D02*
X03901Y03197D01*
X03897Y03205D01*
X03905Y03201D01*
X03913Y03205D01*
X03909Y03197D01*
X03913Y03189D01*
X03905Y03193D01*
X03897Y03189D01*
Y03089D02*
X03901Y03097D01*
X03897Y03105D01*
X03905Y03101D01*
X03913Y03105D01*
X03909Y03097D01*
X03913Y03089D01*
X03905Y03093D01*
X03897Y03089D01*
Y02989D02*
X03901Y02997D01*
X03897Y03005D01*
X03905Y03001D01*
X03913Y03005D01*
X03909Y02997D01*
X03913Y02989D01*
X03905Y02993D01*
X03897Y02989D01*
Y02889D02*
X03901Y02897D01*
X03897Y02905D01*
X03905Y02901D01*
X03913Y02905D01*
X03909Y02897D01*
X03913Y02889D01*
X03905Y02893D01*
X03897Y02889D01*
Y02789D02*
X03901Y02797D01*
X03897Y02805D01*
X03905Y02801D01*
X03913Y02805D01*
X03909Y02797D01*
X03913Y02789D01*
X03905Y02793D01*
X03897Y02789D01*
Y02689D02*
X03901Y02697D01*
X03897Y02705D01*
X03905Y02701D01*
X03913Y02705D01*
X03909Y02697D01*
X03913Y02689D01*
X03905Y02693D01*
X03897Y02689D01*
Y02589D02*
X03901Y02597D01*
X03897Y02605D01*
X03905Y02601D01*
X03913Y02605D01*
X03909Y02597D01*
X03913Y02589D01*
X03905Y02593D01*
X03897Y02589D01*
Y02489D02*
X03901Y02497D01*
X03897Y02505D01*
X03905Y02501D01*
X03913Y02505D01*
X03909Y02497D01*
X03913Y02489D01*
X03905Y02493D01*
X03897Y02489D01*
Y02389D02*
X03901Y02397D01*
X03897Y02405D01*
X03905Y02401D01*
X03913Y02405D01*
X03909Y02397D01*
X03913Y02389D01*
X03905Y02393D01*
X03897Y02389D01*
Y02289D02*
X03901Y02297D01*
X03897Y02305D01*
X03905Y02301D01*
X03913Y02305D01*
X03909Y02297D01*
X03913Y02289D01*
X03905Y02293D01*
X03897Y02289D01*
Y02189D02*
X03901Y02197D01*
X03897Y02205D01*
X03905Y02201D01*
X03913Y02205D01*
X03909Y02197D01*
X03913Y02189D01*
X03905Y02193D01*
X03897Y02189D01*
Y02089D02*
X03901Y02097D01*
X03897Y02105D01*
X03905Y02101D01*
X03913Y02105D01*
X03909Y02097D01*
X03913Y02089D01*
X03905Y02093D01*
X03897Y02089D01*
Y01989D02*
X03901Y01997D01*
X03897Y02005D01*
X03905Y02001D01*
X03913Y02005D01*
X03909Y01997D01*
X03913Y01989D01*
X03905Y01993D01*
X03897Y01989D01*
Y01889D02*
X03901Y01897D01*
X03897Y01905D01*
X03905Y01901D01*
X03913Y01905D01*
X03909Y01897D01*
X03913Y01889D01*
X03905Y01893D01*
X03897Y01889D01*
X04897Y03689D02*
X04901Y03697D01*
X04897Y03705D01*
X04905Y03701D01*
X04913Y03705D01*
X04909Y03697D01*
X04913Y03689D01*
X04905Y03693D01*
X04897Y03689D01*
Y03589D02*
X04901Y03597D01*
X04897Y03605D01*
X04905Y03601D01*
X04913Y03605D01*
X04909Y03597D01*
X04913Y03589D01*
X04905Y03593D01*
X04897Y03589D01*
Y03489D02*
X04901Y03497D01*
X04897Y03505D01*
X04905Y03501D01*
X04913Y03505D01*
X04909Y03497D01*
X04913Y03489D01*
X04905Y03493D01*
X04897Y03489D01*
Y03389D02*
X04901Y03397D01*
X04897Y03405D01*
X04905Y03401D01*
X04913Y03405D01*
X04909Y03397D01*
X04913Y03389D01*
X04905Y03393D01*
X04897Y03389D01*
Y03289D02*
X04901Y03297D01*
X04897Y03305D01*
X04905Y03301D01*
X04913Y03305D01*
X04909Y03297D01*
X04913Y03289D01*
X04905Y03293D01*
X04897Y03289D01*
Y03189D02*
X04901Y03197D01*
X04897Y03205D01*
X04905Y03201D01*
X04913Y03205D01*
X04909Y03197D01*
X04913Y03189D01*
X04905Y03193D01*
X04897Y03189D01*
Y03089D02*
X04901Y03097D01*
X04897Y03105D01*
X04905Y03101D01*
X04913Y03105D01*
X04909Y03097D01*
X04913Y03089D01*
X04905Y03093D01*
X04897Y03089D01*
Y02989D02*
X04901Y02997D01*
X04897Y03005D01*
X04905Y03001D01*
X04913Y03005D01*
X04909Y02997D01*
X04913Y02989D01*
X04905Y02993D01*
X04897Y02989D01*
Y02889D02*
X04901Y02897D01*
X04897Y02905D01*
X04905Y02901D01*
X04913Y02905D01*
X04909Y02897D01*
X04913Y02889D01*
X04905Y02893D01*
X04897Y02889D01*
Y02789D02*
X04901Y02797D01*
X04897Y02805D01*
X04905Y02801D01*
X04913Y02805D01*
X04909Y02797D01*
X04913Y02789D01*
X04905Y02793D01*
X04897Y02789D01*
Y02689D02*
X04901Y02697D01*
X04897Y02705D01*
X04905Y02701D01*
X04913Y02705D01*
X04909Y02697D01*
X04913Y02689D01*
X04905Y02693D01*
X04897Y02689D01*
Y02589D02*
X04901Y02597D01*
X04897Y02605D01*
X04905Y02601D01*
X04913Y02605D01*
X04909Y02597D01*
X04913Y02589D01*
X04905Y02593D01*
X04897Y02589D01*
Y02489D02*
X04901Y02497D01*
X04897Y02505D01*
X04905Y02501D01*
X04913Y02505D01*
X04909Y02497D01*
X04913Y02489D01*
X04905Y02493D01*
X04897Y02489D01*
Y02389D02*
X04901Y02397D01*
X04897Y02405D01*
X04905Y02401D01*
X04913Y02405D01*
X04909Y02397D01*
X04913Y02389D01*
X04905Y02393D01*
X04897Y02389D01*
Y02289D02*
X04901Y02297D01*
X04897Y02305D01*
X04905Y02301D01*
X04913Y02305D01*
X04909Y02297D01*
X04913Y02289D01*
X04905Y02293D01*
X04897Y02289D01*
Y02189D02*
X04901Y02197D01*
X04897Y02205D01*
X04905Y02201D01*
X04913Y02205D01*
X04909Y02197D01*
X04913Y02189D01*
X04905Y02193D01*
X04897Y02189D01*
Y02089D02*
X04901Y02097D01*
X04897Y02105D01*
X04905Y02101D01*
X04913Y02105D01*
X04909Y02097D01*
X04913Y02089D01*
X04905Y02093D01*
X04897Y02089D01*
Y01989D02*
X04901Y01997D01*
X04897Y02005D01*
X04905Y02001D01*
X04913Y02005D01*
X04909Y01997D01*
X04913Y01989D01*
X04905Y01993D01*
X04897Y01989D01*
Y01889D02*
X04901Y01897D01*
X04897Y01905D01*
X04905Y01901D01*
X04913Y01905D01*
X04909Y01897D01*
X04913Y01889D01*
X04905Y01893D01*
X04897Y01889D01*
D35*
X05233Y01835D02*
G03*
X05233Y01835I-00008J0D01*
G01*
Y01935D02*
G03*
X05233Y01935I-00008J0D01*
G01*
X03593Y0368D02*
G03*
X03593Y0368I-00008J0D01*
G01*
Y0358D02*
G03*
X03593Y0358I-00008J0D01*
G01*
Y0318D02*
G03*
X03593Y0318I-00008J0D01*
G01*
Y0298D02*
G03*
X03593Y0298I-00008J0D01*
G01*
Y0308D02*
G03*
X03593Y0308I-00008J0D01*
G01*
Y0328D02*
G03*
X03593Y0328I-00008J0D01*
G01*
Y0338D02*
G03*
X03593Y0338I-00008J0D01*
G01*
Y0348D02*
G03*
X03593Y0348I-00008J0D01*
G01*
M02*
