G04*
G04 #@! TF.GenerationSoftware,Altium Limited,Altium Designer,21.3.2 (30)*
G04*
G04 Layer_Physical_Order=2*
G04 Layer_Color=16711680*
%FSTAX24Y24*%
%MOIN*%
G70*
G04*
G04 #@! TF.SameCoordinates,6B988B76-0ACF-4F39-8010-38100BFBF103*
G04*
G04*
G04 #@! TF.FilePolarity,Positive*
G04*
G01*
G75*
%ADD12C,0.0250*%
%ADD24O,0.0472X0.0866*%
%ADD25R,0.0630X0.0630*%
%ADD26C,0.0630*%
%ADD27C,0.0984*%
%ADD28R,0.0984X0.0984*%
%ADD29C,0.0598*%
%ADD30R,0.0598X0.0598*%
%ADD31R,0.0984X0.0472*%
%ADD32O,0.0984X0.0472*%
%ADD33C,0.0200*%
G36*
X05755Y039775D02*
X0575Y039725D01*
Y016275D01*
X03365D01*
Y039875D01*
X05745D01*
X05755Y039775D01*
D02*
G37*
%LPC*%
G36*
X05563Y038143D02*
X05563Y038143D01*
X036D01*
X0359Y03813D01*
X0358Y038143D01*
X035696Y03813D01*
X035598Y038089D01*
X035515Y038025D01*
X035045Y037555D01*
X034981Y037472D01*
X03494Y037374D01*
X034927Y03727D01*
X034927Y03727D01*
Y03632D01*
X034927Y03632D01*
X03494Y036216D01*
X034981Y036118D01*
X035045Y036035D01*
X035235Y035844D01*
Y035739D01*
X035259Y035621D01*
X035305Y035509D01*
X035372Y035408D01*
X035449Y035332D01*
X035454Y0353D01*
X035449Y035268D01*
X035372Y035192D01*
X035305Y035091D01*
X035259Y034979D01*
X035235Y034861D01*
Y034756D01*
X035045Y034565D01*
X034981Y034482D01*
X03494Y034384D01*
X034927Y03428D01*
X034927Y03428D01*
Y02612D01*
X034927Y02612D01*
X034927Y02612D01*
Y020671D01*
X034927Y020671D01*
X03494Y020566D01*
X034981Y020469D01*
X035045Y020385D01*
X035715Y019715D01*
X035799Y019651D01*
X035896Y01961D01*
X036001Y019597D01*
X036006D01*
X036047Y019556D01*
Y019444D01*
X035985Y019382D01*
X035919Y019284D01*
X035874Y019175D01*
X035851Y019059D01*
Y018941D01*
X035874Y018825D01*
X035919Y018716D01*
X035985Y018618D01*
X036068Y018535D01*
X036166Y018469D01*
X036275Y018424D01*
X036391Y018401D01*
X036479D01*
X036645Y018235D01*
X036728Y018171D01*
X036826Y01813D01*
X03693Y018117D01*
X036965Y018121D01*
X037Y018117D01*
X051327Y018117D01*
Y01775D01*
X05134Y017646D01*
X051381Y017548D01*
X051445Y017465D01*
X051528Y017401D01*
X051626Y01736D01*
X05173Y017347D01*
X05286D01*
X05286Y017347D01*
X052964Y01736D01*
X053062Y017401D01*
X053145Y017465D01*
X0534Y01772D01*
X0534Y01772D01*
X053464Y017803D01*
X053505Y017901D01*
X053518Y018005D01*
Y024435D01*
X053505Y024539D01*
X053464Y024637D01*
X0534Y02472D01*
X052945Y025175D01*
X052862Y025239D01*
X052764Y02528D01*
X05266Y025293D01*
X05266Y025293D01*
X050866D01*
X050846Y02534D01*
X056505Y030999D01*
X056569Y031082D01*
X05661Y031179D01*
X056623Y031284D01*
Y03715D01*
X056623Y03715D01*
X05661Y037254D01*
X056569Y037352D01*
X056505Y037435D01*
X055915Y038025D01*
X055832Y038089D01*
X055734Y03813D01*
X05563Y038143D01*
D02*
G37*
%LPD*%
G36*
X055761Y037038D02*
X055742Y036992D01*
X054799D01*
X054535Y037256D01*
X054495Y037287D01*
X054512Y037337D01*
X055463D01*
X055761Y037038D01*
D02*
G37*
G36*
X048365Y037292D02*
X048326Y037241D01*
X048272Y03711D01*
X048253Y03697D01*
X048221Y036933D01*
X047407D01*
X047085Y037256D01*
X047045Y037287D01*
X047062Y037337D01*
X048343D01*
X048365Y037292D01*
D02*
G37*
G36*
X038258Y036434D02*
X03844D01*
X038456Y036387D01*
X038412Y036353D01*
X038326Y036241D01*
X038272Y03611D01*
X038253Y03597D01*
X038272Y035831D01*
X038326Y0357D01*
X038412Y035588D01*
X038524Y035502D01*
X03854Y035495D01*
Y035445D01*
X038524Y035439D01*
X038412Y035353D01*
X038326Y035241D01*
X038272Y03511D01*
X038253Y03497D01*
X038272Y034831D01*
X038326Y0347D01*
X038412Y034588D01*
X038524Y034502D01*
X03854Y034495D01*
Y034445D01*
X038524Y034439D01*
X038412Y034353D01*
X038326Y034241D01*
X038272Y03411D01*
X038253Y03397D01*
X038267Y033863D01*
X038228Y033813D01*
X0365D01*
X036465Y033844D01*
Y033861D01*
X036441Y033979D01*
X036395Y034091D01*
X036328Y034192D01*
X036251Y034268D01*
X036246Y0343D01*
X036251Y034332D01*
X036328Y034408D01*
X036395Y034509D01*
X036441Y034621D01*
X036465Y034739D01*
Y034861D01*
X036441Y034979D01*
X036395Y035091D01*
X036328Y035192D01*
X036251Y035268D01*
X036246Y0353D01*
X036251Y035332D01*
X036328Y035408D01*
X036395Y035509D01*
X036441Y035621D01*
X036465Y035739D01*
Y035861D01*
X036441Y035979D01*
X036395Y036091D01*
X036328Y036192D01*
X036251Y036268D01*
X036246Y0363D01*
X036251Y036332D01*
X036316Y036397D01*
X0374D01*
X0374Y036397D01*
X037504Y03641D01*
X037602Y036451D01*
X037685Y036515D01*
X037738Y036567D01*
X038258D01*
Y036434D01*
D02*
G37*
G36*
X054257Y035421D02*
Y034597D01*
X053533Y033873D01*
X049872D01*
X049839Y033911D01*
X049847Y03397D01*
X049828Y03411D01*
X049774Y034241D01*
X049688Y034353D01*
X049576Y034439D01*
X04956Y034445D01*
Y034495D01*
X049576Y034502D01*
X049661Y034567D01*
X05273D01*
X05273Y034567D01*
X052834Y034581D01*
X052931Y034621D01*
X053015Y034685D01*
X053761Y035432D01*
X053881Y035408D01*
X054037D01*
X05419Y035438D01*
X054215Y035449D01*
X054257Y035421D01*
D02*
G37*
G36*
X055115Y033635D02*
X053853Y032374D01*
X049661D01*
X049576Y032439D01*
X04956Y032445D01*
Y032495D01*
X049576Y032502D01*
X049688Y032588D01*
X049774Y0327D01*
X049828Y032831D01*
X049847Y03297D01*
X049839Y033029D01*
X049872Y033067D01*
X0537D01*
X0537Y033067D01*
X053804Y03308D01*
X053902Y033121D01*
X053985Y033185D01*
X054945Y034145D01*
X055009Y034228D01*
X05505Y034326D01*
X055063Y03443D01*
Y035408D01*
X055115D01*
Y033635D01*
D02*
G37*
G36*
X04193Y03286D02*
X041911Y032813D01*
X039872D01*
X039833Y032863D01*
X039847Y03297D01*
X039878Y033007D01*
X041783D01*
X04193Y03286D01*
D02*
G37*
G36*
X038253Y03297D02*
X038267Y032863D01*
X038228Y032813D01*
X036539D01*
X03652Y03286D01*
X036667Y033007D01*
X038222D01*
X038253Y03297D01*
D02*
G37*
G36*
X055817Y033125D02*
Y031451D01*
X05077Y026404D01*
X050723Y026423D01*
Y03065D01*
X05071Y030755D01*
X050669Y030852D01*
X050605Y030936D01*
X050605Y030936D01*
X050285Y031256D01*
X050202Y03132D01*
X050104Y03136D01*
X05Y031374D01*
X05Y031374D01*
X049661D01*
X049576Y031439D01*
X04956Y031445D01*
Y031495D01*
X049576Y031502D01*
X049661Y031567D01*
X05402D01*
X05402Y031567D01*
X054125Y031581D01*
X054222Y031621D01*
X054306Y031685D01*
X055767Y033146D01*
X055817Y033125D01*
D02*
G37*
G36*
X038253Y03197D02*
X038272Y03183D01*
X038326Y0317D01*
X038412Y031588D01*
X038524Y031502D01*
X03854Y031495D01*
Y031445D01*
X038524Y031439D01*
X038412Y031353D01*
X038326Y031241D01*
X038272Y03111D01*
X038253Y03097D01*
X038261Y030911D01*
X038228Y030873D01*
X036462D01*
X036441Y030979D01*
X036395Y031091D01*
X036328Y031192D01*
X036251Y031268D01*
X036246Y0313D01*
X036251Y031332D01*
X036328Y031408D01*
X036395Y031509D01*
X036441Y031621D01*
X036465Y031739D01*
Y031844D01*
X036627Y032007D01*
X038222D01*
X038253Y03197D01*
D02*
G37*
G36*
X046955Y036245D02*
X046955Y036245D01*
X047038Y036181D01*
X047136Y03614D01*
X04724Y036127D01*
X04724Y036127D01*
X04802D01*
X048039Y03608D01*
X047765Y035806D01*
X047701Y035722D01*
X04766Y035625D01*
X047647Y03552D01*
X047647Y03552D01*
Y03075D01*
X047647Y03075D01*
X04766Y030646D01*
X047701Y030548D01*
X047765Y030465D01*
X047809Y03042D01*
X04779Y030374D01*
X045557D01*
X042235Y033695D01*
X042152Y033759D01*
X042054Y0338D01*
X04195Y033813D01*
X04195Y033813D01*
X039872D01*
X039833Y033863D01*
X039847Y03397D01*
X039828Y03411D01*
X039774Y034241D01*
X039688Y034353D01*
X039576Y034439D01*
X03956Y034445D01*
Y034495D01*
X039576Y034502D01*
X039688Y034588D01*
X039774Y0347D01*
X039828Y034831D01*
X039847Y03497D01*
X039828Y03511D01*
X039774Y035241D01*
X039688Y035353D01*
X039576Y035439D01*
X03956Y035445D01*
Y035495D01*
X039576Y035502D01*
X039688Y035588D01*
X039774Y0357D01*
X039828Y035831D01*
X039847Y03597D01*
X039828Y03611D01*
X039774Y036241D01*
X039688Y036353D01*
X039644Y036387D01*
X03966Y036434D01*
X039842D01*
Y036567D01*
X046632D01*
X046955Y036245D01*
D02*
G37*
G36*
X044469Y02942D02*
X04445Y029374D01*
X042247D01*
X040865Y030755D01*
X040782Y030819D01*
X040684Y03086D01*
X04058Y030873D01*
X04058Y030873D01*
X039872D01*
X039839Y030911D01*
X039847Y03097D01*
X039828Y03111D01*
X039774Y031241D01*
X039688Y031353D01*
X039576Y031439D01*
X03956Y031445D01*
Y031495D01*
X039576Y031502D01*
X039688Y031588D01*
X039774Y0317D01*
X039828Y03183D01*
X039847Y03197D01*
X039878Y032007D01*
X041883D01*
X044469Y02942D01*
D02*
G37*
G36*
X041794Y028685D02*
X041794Y028685D01*
X041878Y028621D01*
X041975Y028581D01*
X04208Y028567D01*
X04208Y028567D01*
X048439D01*
X048524Y028502D01*
X04854Y028495D01*
Y028445D01*
X048524Y028439D01*
X048439Y028374D01*
X041757D01*
X040315Y029815D01*
X040232Y029879D01*
X040134Y02992D01*
X04003Y029933D01*
X04003Y029933D01*
X039879D01*
X039847Y02997D01*
X039839Y030029D01*
X039872Y030067D01*
X040413D01*
X041794Y028685D01*
D02*
G37*
G36*
X049917Y029301D02*
Y026287D01*
X049834Y026205D01*
X049785Y026215D01*
X049774Y026241D01*
X049688Y026353D01*
X049576Y026439D01*
X04956Y026445D01*
Y026495D01*
X049576Y026502D01*
X049688Y026588D01*
X049774Y0267D01*
X049828Y02683D01*
X049847Y02697D01*
X049828Y02711D01*
X049774Y027241D01*
X049688Y027353D01*
X049576Y027439D01*
X04956Y027445D01*
Y027495D01*
X049576Y027502D01*
X049688Y027588D01*
X049774Y0277D01*
X049828Y027831D01*
X049847Y02797D01*
X049828Y02811D01*
X049774Y028241D01*
X049688Y028353D01*
X049576Y028439D01*
X04956Y028445D01*
Y028495D01*
X049576Y028502D01*
X049688Y028588D01*
X049774Y0287D01*
X049828Y02883D01*
X049847Y02897D01*
X049828Y02911D01*
X049778Y029232D01*
X049795Y029245D01*
X04987Y02932D01*
X049917Y029301D01*
D02*
G37*
G36*
X038075Y029245D02*
X038075Y029245D01*
X038158Y029181D01*
X038234Y029149D01*
X038272Y02911D01*
X038253Y02897D01*
X038272Y02883D01*
X038326Y0287D01*
X038412Y028588D01*
X038524Y028502D01*
X03854Y028495D01*
Y028445D01*
X038524Y028439D01*
X038412Y028353D01*
X038326Y028241D01*
X038272Y02811D01*
X038253Y02797D01*
X038272Y027831D01*
X038326Y0277D01*
X038412Y027588D01*
X038524Y027502D01*
X03854Y027495D01*
Y027445D01*
X038524Y027439D01*
X038412Y027353D01*
X038326Y027241D01*
X038272Y02711D01*
X038253Y02697D01*
X038272Y02683D01*
X038326Y0267D01*
X038412Y026588D01*
X038524Y026502D01*
X03854Y026495D01*
Y026445D01*
X038524Y026439D01*
X038412Y026353D01*
X038326Y026241D01*
X038272Y02611D01*
X038253Y02597D01*
X038272Y025831D01*
X038326Y0257D01*
X038412Y025588D01*
X038524Y025502D01*
X03854Y025495D01*
Y025445D01*
X038524Y025439D01*
X038412Y025353D01*
X038326Y025241D01*
X038272Y02511D01*
X038253Y02497D01*
X038272Y024831D01*
X038326Y0247D01*
X038412Y024588D01*
X038524Y024502D01*
X03854Y024495D01*
Y024445D01*
X038524Y024439D01*
X038439Y024374D01*
X037647D01*
X037049Y024971D01*
Y025599D01*
X036421D01*
X035733Y026287D01*
Y029185D01*
X036465D01*
Y029397D01*
X037923D01*
X038075Y029245D01*
D02*
G37*
G36*
X050237Y02315D02*
Y022241D01*
X050237Y022241D01*
X05025Y022136D01*
X050291Y022039D01*
X05032Y022001D01*
X050193Y021873D01*
X049872D01*
X049839Y021911D01*
X049847Y02197D01*
X049828Y02211D01*
X049774Y022241D01*
X049688Y022353D01*
X049576Y022439D01*
X04956Y022445D01*
Y022495D01*
X049576Y022502D01*
X049688Y022588D01*
X049774Y0227D01*
X049828Y022831D01*
X049847Y02297D01*
X049833Y023077D01*
X049872Y023127D01*
X05D01*
X05Y023127D01*
X050104Y02314D01*
X050187Y023174D01*
X050237Y02315D01*
D02*
G37*
G36*
X052149Y023103D02*
X052279Y023049D01*
X052419Y023031D01*
X052559Y023049D01*
X052662Y023092D01*
X052712Y02306D01*
Y022509D01*
X052662Y022477D01*
X052559Y022519D01*
X052419Y022538D01*
X052279Y022519D01*
X052149Y022465D01*
X052085Y022416D01*
X05202Y022465D01*
X05189Y022519D01*
X051825Y022528D01*
X051509Y022844D01*
Y023046D01*
X051551Y023074D01*
X05161Y023049D01*
X05175Y023031D01*
X05189Y023049D01*
X05202Y023103D01*
X052085Y023153D01*
X052149Y023103D01*
D02*
G37*
G36*
X037194Y023685D02*
X037278Y023621D01*
X037375Y023581D01*
X03748Y023567D01*
X038439D01*
X038524Y023502D01*
X03854Y023495D01*
Y023445D01*
X038524Y023439D01*
X038412Y023353D01*
X038326Y023241D01*
X038272Y02311D01*
X038253Y02297D01*
X038272Y022831D01*
X038326Y0227D01*
X038412Y022588D01*
X038524Y022502D01*
X03854Y022495D01*
Y022445D01*
X038524Y022439D01*
X038412Y022353D01*
X038326Y022241D01*
X038292Y022159D01*
X038233Y022148D01*
X038095Y022285D01*
X038012Y022349D01*
X037914Y02239D01*
X03781Y022403D01*
X03781Y022403D01*
X036894D01*
X036832Y022465D01*
X036818Y022475D01*
Y022525D01*
X036832Y022535D01*
X036915Y022618D01*
X036981Y022716D01*
X037026Y022825D01*
X037049Y022941D01*
Y023059D01*
X037026Y023175D01*
X036981Y023284D01*
X036915Y023382D01*
X036832Y023465D01*
X036818Y023475D01*
Y023525D01*
X036832Y023535D01*
X036915Y023618D01*
X036981Y023716D01*
X037014Y023795D01*
X037072Y023807D01*
X037194Y023685D01*
D02*
G37*
G36*
X050698Y021221D02*
X05081Y021135D01*
X050941Y021081D01*
X051081Y021062D01*
X051221Y021081D01*
X05128Y021105D01*
X051321Y021077D01*
Y020992D01*
X051336Y020881D01*
X051379Y020778D01*
X051447Y020689D01*
X052136Y019999D01*
X052122Y019952D01*
X052071Y019941D01*
X051959Y019895D01*
X051858Y019828D01*
X051772Y019742D01*
X051705Y019641D01*
X051659Y019529D01*
X051635Y019411D01*
Y019306D01*
X051445Y019115D01*
X051253Y018923D01*
X049878D01*
X049846Y018961D01*
X049847Y01897D01*
X049828Y01911D01*
X049774Y019241D01*
X049688Y019353D01*
X049576Y019439D01*
X04956Y019445D01*
Y019495D01*
X049576Y019502D01*
X049688Y019588D01*
X049774Y0197D01*
X049828Y01983D01*
X049847Y01997D01*
X049828Y02011D01*
X049774Y020241D01*
X049688Y020353D01*
X049576Y020439D01*
X04956Y020445D01*
Y020495D01*
X049576Y020502D01*
X049688Y020588D01*
X049774Y0207D01*
X049828Y020831D01*
X049847Y02097D01*
X049839Y021029D01*
X049872Y021067D01*
X05036D01*
X05036Y021067D01*
X050464Y02108D01*
X050562Y021121D01*
X050645Y021185D01*
X050682Y021222D01*
X050698Y021221D01*
D02*
G37*
G36*
X041304Y027685D02*
X041304Y027685D01*
X041388Y027621D01*
X041485Y027581D01*
X04159Y027567D01*
X048439D01*
X048524Y027502D01*
X04854Y027495D01*
Y027445D01*
X048524Y027439D01*
X048412Y027353D01*
X048326Y027241D01*
X048272Y02711D01*
X048253Y02697D01*
X048272Y02683D01*
X048326Y0267D01*
X048412Y026588D01*
X048524Y026502D01*
X04854Y026495D01*
Y026445D01*
X048524Y026439D01*
X048412Y026353D01*
X048326Y026241D01*
X048272Y02611D01*
X048253Y02597D01*
X048266Y025872D01*
X048246Y02587D01*
X048148Y025829D01*
X048065Y025765D01*
X048001Y025682D01*
X04796Y025584D01*
X047947Y02548D01*
Y02353D01*
X04796Y023426D01*
X048001Y023328D01*
X048065Y023245D01*
X048148Y023181D01*
X048232Y023146D01*
X04825Y02313D01*
X048269Y023087D01*
X048253Y02297D01*
X048272Y022831D01*
X048326Y0227D01*
X048412Y022588D01*
X048524Y022502D01*
X04854Y022495D01*
Y022445D01*
X048524Y022439D01*
X048412Y022353D01*
X048326Y022241D01*
X048272Y02211D01*
X048253Y02197D01*
X048272Y02183D01*
X048286Y021795D01*
X048235Y021755D01*
X045853Y019374D01*
X03998D01*
X039961Y01942D01*
X040755Y020215D01*
X040819Y020298D01*
X04086Y020396D01*
X040873Y0205D01*
Y02804D01*
X040873Y02804D01*
X040872Y02805D01*
X040917Y028072D01*
X041304Y027685D01*
D02*
G37*
G36*
X048354Y020663D02*
X048412Y020588D01*
X048524Y020502D01*
X04854Y020495D01*
Y020445D01*
X048524Y020439D01*
X048412Y020353D01*
X048326Y020241D01*
X048272Y02011D01*
X048253Y01997D01*
X048272Y01983D01*
X048326Y0197D01*
X048412Y019588D01*
X048524Y019502D01*
X04854Y019495D01*
Y019445D01*
X048524Y019439D01*
X048412Y019353D01*
X048326Y019241D01*
X048272Y01911D01*
X048253Y01897D01*
X048254Y018961D01*
X048222Y018923D01*
X046609D01*
X04659Y01897D01*
X048288Y020667D01*
X048354Y020663D01*
D02*
G37*
D12*
X05175Y020992D02*
Y0218D01*
X051081Y022666D02*
Y023768D01*
X05175Y0218D02*
Y021997D01*
X051081Y022666D02*
X05175Y021997D01*
X052785Y019555D02*
X05279Y01955D01*
Y01889D02*
Y01955D01*
X05225Y01835D02*
X05279Y01889D01*
X052785Y019555D02*
Y019957D01*
X05175Y020992D02*
X052785Y019957D01*
D24*
X051081Y0218D02*
D03*
X05175D02*
D03*
X052419D02*
D03*
Y023768D02*
D03*
X05175D02*
D03*
X051081D02*
D03*
D25*
X05225Y01835D02*
D03*
X03585Y0298D02*
D03*
D26*
X05225Y01935D02*
D03*
X03585Y0368D02*
D03*
Y0358D02*
D03*
Y0318D02*
D03*
Y0308D02*
D03*
Y0328D02*
D03*
Y0338D02*
D03*
Y0348D02*
D03*
D27*
X053959Y0362D02*
D03*
X0524D02*
D03*
X050841D02*
D03*
D28*
X055518D02*
D03*
D29*
X03645Y019D02*
D03*
Y02D02*
D03*
Y021D02*
D03*
Y022D02*
D03*
Y024D02*
D03*
Y023D02*
D03*
D30*
Y025D02*
D03*
D31*
X03905Y03697D02*
D03*
D32*
Y03597D02*
D03*
Y03497D02*
D03*
Y03397D02*
D03*
Y03297D02*
D03*
Y03197D02*
D03*
Y03097D02*
D03*
Y02997D02*
D03*
Y02897D02*
D03*
Y02797D02*
D03*
Y02697D02*
D03*
Y02597D02*
D03*
Y02497D02*
D03*
Y02397D02*
D03*
Y02297D02*
D03*
Y02197D02*
D03*
Y02097D02*
D03*
Y01997D02*
D03*
Y01897D02*
D03*
X04905Y03697D02*
D03*
Y03597D02*
D03*
Y03497D02*
D03*
Y03397D02*
D03*
Y03297D02*
D03*
Y03197D02*
D03*
Y03097D02*
D03*
Y02997D02*
D03*
Y02897D02*
D03*
Y02797D02*
D03*
Y02697D02*
D03*
Y02597D02*
D03*
Y02497D02*
D03*
Y02397D02*
D03*
Y02297D02*
D03*
Y02197D02*
D03*
Y02097D02*
D03*
Y01997D02*
D03*
Y01897D02*
D03*
D33*
X03585Y0328D02*
X03589D01*
X0365Y03341D01*
X03757Y03697D02*
X0468D01*
X0374Y0368D02*
X03757Y03697D01*
X03585Y0368D02*
X0374D01*
X03645Y025D02*
X03748Y02397D01*
X037Y01852D02*
X05142Y01852D01*
X05064Y02175D02*
X051081D01*
Y0218D01*
X05064Y022241D02*
Y02425D01*
Y022241D02*
X051081Y0218D01*
X05036Y02147D02*
X05064Y02175D01*
X04852Y02147D02*
X05036D01*
X04602Y01897D02*
X04852Y02147D01*
X03905Y01897D02*
X04602D01*
X05175Y023768D02*
Y02434D01*
X0515Y02459D02*
X05175Y02434D01*
X05098Y02459D02*
X0515D01*
X05064Y02425D02*
X05098Y02459D01*
X035937Y023487D02*
X03645Y024D01*
X035937Y020501D02*
Y023487D01*
Y020501D02*
X037435D01*
X037483Y020452D01*
Y019045D02*
Y020452D01*
Y01897D02*
X03905D01*
X050431Y02489D02*
X05266D01*
X05Y02353D02*
X05034Y02387D01*
Y024799D02*
X050431Y02489D01*
X05034Y02387D02*
Y024799D01*
X05142Y01852D02*
X05173Y01883D01*
X03533Y020671D02*
X036001Y02D01*
X03645D01*
Y019D02*
X03693Y01852D01*
X038358Y01953D02*
X0395D01*
X03799Y019898D02*
X038358Y01953D01*
X03799Y019898D02*
Y02075D01*
X03748Y02397D02*
X03905D01*
X03645Y019D02*
Y02D01*
X03533Y020671D02*
Y02612D01*
X03831Y02075D02*
X03859Y02047D01*
X03836Y02953D02*
X04003D01*
X03618Y03047D02*
X04058D01*
X03809Y0298D02*
X03836Y02953D01*
X03859Y02047D02*
X03961D01*
X03831Y02075D02*
Y0215D01*
X03905Y02797D02*
X03989D01*
X03961Y02047D02*
X03989Y02075D01*
Y02797D01*
X03781Y022D02*
X03831Y0215D01*
X04058Y03047D02*
X04208Y02897D01*
X049657Y02397D02*
X049936Y02425D01*
X04905Y02397D02*
X049657D01*
X049936Y02425D02*
Y025D01*
X04835Y02353D02*
X05D01*
X04835D02*
Y02548D01*
X05286Y01775D02*
X053115Y018005D01*
Y024435D01*
X05266Y02489D02*
X053115Y024435D01*
X05007Y03697D02*
X05425D01*
X05173Y01883D02*
X05225Y01935D01*
X03665Y021D02*
X03774D01*
X03799Y02075D01*
X0395Y01953D02*
X04047Y0205D01*
Y02804D01*
X03954Y02897D02*
X04047Y02804D01*
X03905Y02897D02*
X03954D01*
X03533Y03632D02*
X03585Y0358D01*
X03533Y03632D02*
Y03727D01*
X0358Y03774D01*
X036D02*
X05563D01*
X05622Y03715D01*
Y031284D02*
Y03715D01*
X049936Y025D02*
X05622Y031284D01*
X04905Y03097D02*
X05D01*
X05032Y03065D01*
Y02612D02*
Y03065D01*
X04968Y02548D02*
X05032Y02612D01*
X04835Y02548D02*
X04968D01*
X05173Y01775D02*
X05286D01*
X05173D02*
Y01883D01*
X04159Y02797D02*
X04905D01*
X04003Y02953D02*
X04159Y02797D01*
X03605Y0298D02*
X03809D01*
X03533Y02612D02*
Y03428D01*
Y02612D02*
X03645Y025D01*
X03533Y03428D02*
X03585Y0348D01*
X03665Y022D02*
X03781D01*
X03585Y0318D02*
X03646Y03241D01*
X04205D01*
X04493Y02953D01*
X04951D01*
X04998Y03D01*
X04954Y03044D02*
X04998Y03D01*
X04836Y03044D02*
X04954D01*
X04805Y03075D02*
X04836Y03044D01*
X04805Y03075D02*
Y03552D01*
X0485Y03597D01*
X04905D01*
X04539Y02997D02*
X04905D01*
X04195Y03341D02*
X04539Y02997D01*
X0365Y03341D02*
X04195D01*
X04835Y03097D02*
X04905D01*
X04835D02*
Y03347D01*
X0537D01*
X05466Y03443D01*
Y03656D01*
X05425Y03697D02*
X05466Y03656D01*
X04905Y03197D02*
X05402D01*
X055518Y033468D01*
Y0362D01*
X04905Y03497D02*
X05273D01*
X053959Y0362D01*
X04208Y02897D02*
X04905D01*
X03585Y0308D02*
X03618Y03047D01*
X04905Y03697D02*
X05007D01*
X050841Y0362D01*
X0517Y0355D02*
X0524Y0362D01*
X05048Y0355D02*
X0517D01*
X04945Y03653D02*
X05048Y0355D01*
X04724Y03653D02*
X04945D01*
X0468Y03697D02*
X04724Y03653D01*
M02*
