M48
;Layer_Color=9474304
;FILE_FORMAT=2:4
INCH,LZ
;TYPE=PLATED
T1F00S00C0.0236
T2F00S00C0.0295
T3F00S00C0.0315
T4F00S00C0.0402
T5F00S00C0.0591
%
T01
X04905Y01897
Y01997
Y02097
Y02197
Y02297
Y02397
Y02497
Y02597
Y02697
Y02797
Y02897
Y02997
Y03097
X03905
Y02997
Y02897
Y02797
Y02697
Y02597
Y02497
Y02397
Y02297
Y02197
Y02097
Y01997
Y01897
Y03197
Y03297
Y03397
Y03497
Y03597
Y03697
X04905
Y03597
Y03497
Y03397
Y03297
Y03197
T02
X051081Y0218
X05175
X052419
Y023768
X05175
X051081
T03
X05225Y01835
Y01935
X03585Y0298
Y0308
Y0318
Y0328
Y0338
Y0348
Y0358
Y0368
T04
X03645Y019
Y02
Y021
Y022
Y023
Y024
Y025
T05
X050841Y0362
X0524
X053959
X055518
M30
