G04*
G04 #@! TF.GenerationSoftware,Altium Limited,Altium Designer,21.3.2 (30)*
G04*
G04 Layer_Color=128*
%FSTAX24Y24*%
%MOIN*%
G70*
G04*
G04 #@! TF.SameCoordinates,6B988B76-0ACF-4F39-8010-38100BFBF103*
G04*
G04*
G04 #@! TF.FilePolarity,Positive*
G04*
G01*
G75*
%ADD34C,0.0020*%
D34*
X050933Y0218D02*
X051228D01*
X051081Y021652D02*
Y021948D01*
X051602Y0218D02*
X051898D01*
X05175Y021652D02*
Y021948D01*
X052272Y0218D02*
X052567D01*
X052419Y021652D02*
Y021948D01*
X052272Y023768D02*
X052567D01*
X052419Y023621D02*
Y023916D01*
X051602Y023768D02*
X051898D01*
X05175Y023621D02*
Y023916D01*
X050933Y023768D02*
X051228D01*
X051081Y023621D02*
Y023916D01*
X052093Y01835D02*
X052407D01*
X05225Y018193D02*
Y018507D01*
X052093Y01935D02*
X052407D01*
X05225Y019193D02*
Y019507D01*
X053664Y0362D02*
X054254D01*
X053959Y035905D02*
Y036495D01*
X055223Y0362D02*
X055813D01*
X055518Y035905D02*
Y036495D01*
X052105Y0362D02*
X052695D01*
X0524Y035905D02*
Y036495D01*
X050546Y0362D02*
X051136D01*
X050841Y035905D02*
Y036495D01*
X035693Y0368D02*
X036007D01*
X03585Y036643D02*
Y036957D01*
X035693Y0358D02*
X036007D01*
X03585Y035643D02*
Y035957D01*
X035693Y0318D02*
X036007D01*
X03585Y031643D02*
Y031957D01*
X035693Y0298D02*
X036007D01*
X03585Y029643D02*
Y029957D01*
X035693Y0308D02*
X036007D01*
X03585Y030643D02*
Y030957D01*
X035693Y0328D02*
X036007D01*
X03585Y032643D02*
Y032957D01*
X035693Y0338D02*
X036007D01*
X03585Y033643D02*
Y033957D01*
X035693Y0348D02*
X036007D01*
X03585Y034643D02*
Y034957D01*
X036249Y019D02*
X036651D01*
X03645Y018799D02*
Y019201D01*
X036249Y02D02*
X036651D01*
X03645Y019799D02*
Y020201D01*
X036249Y021D02*
X036651D01*
X03645Y020799D02*
Y021201D01*
X036249Y022D02*
X036651D01*
X03645Y021799D02*
Y022201D01*
X036249Y024D02*
X036651D01*
X03645Y023799D02*
Y024201D01*
X036249Y025D02*
X036651D01*
X03645Y024799D02*
Y025201D01*
X036249Y023D02*
X036651D01*
X03645Y022799D02*
Y023201D01*
X038932Y03697D02*
X039168D01*
X03905Y036852D02*
Y037089D01*
X038932Y03597D02*
X039168D01*
X03905Y035852D02*
Y036089D01*
X038932Y03497D02*
X039168D01*
X03905Y034852D02*
Y035089D01*
X038932Y03397D02*
X039168D01*
X03905Y033852D02*
Y034089D01*
X038932Y03297D02*
X039168D01*
X03905Y032852D02*
Y033089D01*
X038932Y03197D02*
X039168D01*
X03905Y031852D02*
Y032089D01*
X038932Y03097D02*
X039168D01*
X03905Y030852D02*
Y031089D01*
X038932Y02997D02*
X039168D01*
X03905Y029852D02*
Y030089D01*
X038932Y02897D02*
X039168D01*
X03905Y028852D02*
Y029089D01*
X038932Y02797D02*
X039168D01*
X03905Y027852D02*
Y028089D01*
X038932Y02697D02*
X039168D01*
X03905Y026852D02*
Y027089D01*
X038932Y02597D02*
X039168D01*
X03905Y025852D02*
Y026089D01*
X038932Y02497D02*
X039168D01*
X03905Y024852D02*
Y025089D01*
X038932Y02397D02*
X039168D01*
X03905Y023852D02*
Y024089D01*
X038932Y02297D02*
X039168D01*
X03905Y022852D02*
Y023089D01*
X038932Y02197D02*
X039168D01*
X03905Y021852D02*
Y022089D01*
X038932Y02097D02*
X039168D01*
X03905Y020852D02*
Y021089D01*
X038932Y01997D02*
X039168D01*
X03905Y019852D02*
Y020089D01*
X038932Y01897D02*
X039168D01*
X03905Y018852D02*
Y019089D01*
X048932Y03697D02*
X049168D01*
X04905Y036852D02*
Y037089D01*
X048932Y03597D02*
X049168D01*
X04905Y035852D02*
Y036089D01*
X048932Y03497D02*
X049168D01*
X04905Y034852D02*
Y035089D01*
X048932Y03397D02*
X049168D01*
X04905Y033852D02*
Y034089D01*
X048932Y03297D02*
X049168D01*
X04905Y032852D02*
Y033089D01*
X048932Y03197D02*
X049168D01*
X04905Y031852D02*
Y032089D01*
X048932Y03097D02*
X049168D01*
X04905Y030852D02*
Y031089D01*
X048932Y02997D02*
X049168D01*
X04905Y029852D02*
Y030089D01*
X048932Y02897D02*
X049168D01*
X04905Y028852D02*
Y029089D01*
X048932Y02797D02*
X049168D01*
X04905Y027852D02*
Y028089D01*
X048932Y02697D02*
X049168D01*
X04905Y026852D02*
Y027089D01*
X048932Y02597D02*
X049168D01*
X04905Y025852D02*
Y026089D01*
X048932Y02497D02*
X049168D01*
X04905Y024852D02*
Y025089D01*
X048932Y02397D02*
X049168D01*
X04905Y023852D02*
Y024089D01*
X048932Y02297D02*
X049168D01*
X04905Y022852D02*
Y023089D01*
X048932Y02197D02*
X049168D01*
X04905Y021852D02*
Y022089D01*
X048932Y02097D02*
X049168D01*
X04905Y020852D02*
Y021089D01*
X048932Y01997D02*
X049168D01*
X04905Y019852D02*
Y020089D01*
X048932Y01897D02*
X049168D01*
X04905Y018852D02*
Y019089D01*
M02*
