G04*
G04 #@! TF.GenerationSoftware,Altium Limited,Altium Designer,21.3.2 (30)*
G04*
G04 Layer_Color=65535*
%FSTAX24Y24*%
%MOIN*%
G70*
G04*
G04 #@! TF.SameCoordinates,6B988B76-0ACF-4F39-8010-38100BFBF103*
G04*
G04*
G04 #@! TF.FilePolarity,Positive*
G04*
G01*
G75*
%ADD10C,0.0050*%
%ADD11C,0.0030*%
%ADD12C,0.0250*%
%ADD13C,0.0079*%
%ADD14C,0.0100*%
G36*
X050301Y02184D02*
X050321Y02182D01*
Y02135D01*
X050481Y02142D01*
X050701Y02157D01*
X050301Y02184D01*
D02*
G37*
D10*
X050327Y021838D02*
X050711Y02156D01*
X050332Y021338D02*
X050711Y02156D01*
D11*
X050321Y02127D02*
Y02431D01*
Y02127D02*
X053231D01*
Y02431D01*
X050321D02*
X053231D01*
D12*
X050888Y017374D02*
X05314D01*
X050888D02*
Y020326D01*
X05314D01*
Y017374D02*
Y020326D01*
X050046Y037972D02*
X056313D01*
X050046Y034806D02*
X056313D01*
X050046D02*
Y037972D01*
X056313Y034806D02*
Y037972D01*
X034488Y028824D02*
X03674D01*
X034488D02*
Y037776D01*
X03674D01*
Y028824D02*
Y037776D01*
D13*
X03695Y018401D02*
Y025598D01*
X03595D02*
X03695D01*
X03595Y018401D02*
Y025598D01*
Y018401D02*
X03695D01*
X03595Y0245D02*
X03695D01*
X03845Y03877D02*
X0443D01*
X04965D01*
Y01687D02*
Y03877D01*
X03845Y01687D02*
X04965D01*
X03845D02*
Y03877D01*
D14*
X0541Y02285D02*
X0542Y02295D01*
Y02315D01*
X0541Y02325D01*
X054D01*
X0539Y02315D01*
Y02295D01*
X0538Y02285D01*
X0537D01*
X0536Y02295D01*
Y02315D01*
X0537Y02325D01*
X0542Y02265D02*
X0536D01*
X0538Y02245D01*
X0536Y02225D01*
X0542D01*
X0541Y02205D02*
X0542Y02195D01*
Y02175D01*
X0541Y02165D01*
X054D01*
X0538Y02185D01*
X0537D02*
X0536D01*
Y0196D02*
X0542D01*
Y0193D01*
X0541Y0192D01*
X0539D01*
X0538Y0193D01*
Y0196D01*
X0542Y019D02*
Y0188D01*
Y0189D01*
X0536D01*
Y019D01*
Y0188D01*
Y0185D02*
X0542D01*
X0536Y0181D01*
X0542D01*
X0511Y03905D02*
X0509D01*
X0508Y03895D01*
Y03855D01*
X0509Y03845D01*
X0511D01*
X0512Y03855D01*
Y03895D01*
X0511Y03905D01*
X0514D02*
Y03845D01*
X0518D01*
X0524Y03905D02*
X052D01*
Y03845D01*
X0524D01*
X052Y03875D02*
X0522D01*
X0526Y03905D02*
Y03845D01*
X0529D01*
X053Y03855D01*
Y03895D01*
X0529Y03905D01*
X0526D01*
X03446Y0382D02*
Y0388D01*
X03476D01*
X03486Y0387D01*
Y0385D01*
X03476Y0384D01*
X03446D01*
X03466D02*
X03486Y0382D01*
X03546Y0387D02*
X03536Y0388D01*
X03516D01*
X03506Y0387D01*
Y0383D01*
X03516Y0382D01*
X03536D01*
X03546Y0383D01*
X036059Y0388D02*
X03566D01*
Y0385D01*
X03586Y0386D01*
X03596D01*
X036059Y0385D01*
Y0383D01*
X03596Y0382D01*
X03576D01*
X03566Y0383D01*
X036659Y0382D02*
X036259D01*
X036659Y0386D01*
Y0387D01*
X036559Y0388D01*
X036359D01*
X036259Y0387D01*
X037259Y0382D02*
X036859D01*
X037259Y0386D01*
Y0387D01*
X037159Y0388D01*
X036959D01*
X036859Y0387D01*
X03485Y01725D02*
X03545D01*
Y01765D01*
X03485Y01815D02*
Y01795D01*
X03495Y01785D01*
X03535D01*
X03545Y01795D01*
Y01815D01*
X03535Y01825D01*
X03495D01*
X03485Y01815D01*
X03545Y01845D02*
X03485D01*
Y01875D01*
X03495Y01885D01*
X03515D01*
X03525Y01875D01*
Y01845D01*
Y01865D02*
X03545Y01885D01*
Y01905D02*
X03505D01*
X03485Y01925D01*
X03505Y01945D01*
X03545D01*
X03515D01*
Y01905D01*
X03891Y03971D02*
X03851D01*
Y03911D01*
X03891D01*
X03851Y03941D02*
X03871D01*
X03951Y03961D02*
X03941Y03971D01*
X03921D01*
X03911Y03961D01*
Y03951D01*
X03921Y03941D01*
X03941D01*
X03951Y03931D01*
Y03921D01*
X03941Y03911D01*
X03921D01*
X03911Y03921D01*
X03971Y03911D02*
Y03971D01*
X04001D01*
X040109Y03961D01*
Y03941D01*
X04001Y03931D01*
X03971D01*
M02*
